name ./resultDataOpenSim/trcMotMarkerGrf/sub09/grf-13-07.mot
datacolumns 19
datarows 25
range 1.44800000 1.54400000
endheader

                time	     ground_force_vx	     ground_force_vy	     ground_force_vz	     ground_force_px	     ground_force_py	     ground_force_pz	   l_ground_force_vx	   l_ground_force_vy	   l_ground_force_vz	   l_ground_force_px	   l_ground_force_py	   l_ground_force_pz	     ground_torque_x	     ground_torque_y	     ground_torque_z	   l_ground_torque_x	   l_ground_torque_y	   l_ground_torque_z	
          1.44800000	        -32.21136409	        429.96056720	        -10.06828975	          1.06684953	          0.00000000	          0.04976714	          0.00000000	          0.00000000	          0.00000000	          0.00000000	          0.00000000	          0.00000000	          0.00000000	          1.57785438	          0.00000000	          0.00000000	          0.00000000	          0.00000000	
          1.45200000	        -32.74559871	        429.25708159	         -6.50484059	          1.06816242	          0.00000000	          0.04937047	          0.00000000	          0.00000000	          0.00000000	          0.00000000	          0.00000000	          0.00000000	          0.00000000	          1.84684813	          0.00000000	          0.00000000	          0.00000000	          0.00000000	
          1.45600000	        -33.12058112	        428.85618273	         -3.24727623	          1.06930914	          0.00000000	          0.04898072	          0.00000000	          0.00000000	          0.00000000	          0.00000000	          0.00000000	          0.00000000	          0.00000000	          2.10227256	          0.00000000	          0.00000000	          0.00000000	          0.00000000	
          1.46000000	        -32.96863702	        428.65764231	         -0.78453771	          1.07025639	          0.00000000	          0.04862693	          0.00000000	          0.00000000	          0.00000000	          0.00000000	          0.00000000	          0.00000000	          0.00000000	          2.29103798	          0.00000000	          0.00000000	          0.00000000	          0.00000000	
          1.46400000	        -32.08245535	        428.59869047	          0.55165828	          1.07097636	          0.00000000	          0.04832291	          0.00000000	          0.00000000	          0.00000000	          0.00000000	          0.00000000	          0.00000000	          0.00000000	          2.37686739	          0.00000000	          0.00000000	          0.00000000	          0.00000000	
          1.46800000	        -30.44927498	        428.61864095	          0.64593771	          1.07147915	          0.00000000	          0.04806833	          0.00000000	          0.00000000	          0.00000000	          0.00000000	          0.00000000	          0.00000000	          0.00000000	          2.34734341	          0.00000000	          0.00000000	          0.00000000	          0.00000000	
          1.47200000	        -28.22938862	        428.64734475	         -0.38441193	          1.07181952	          0.00000000	          0.04786339	          0.00000000	          0.00000000	          0.00000000	          0.00000000	          0.00000000	          0.00000000	          0.00000000	          2.21520061	          0.00000000	          0.00000000	          0.00000000	          0.00000000	
          1.47600000	        -25.69884226	        428.65245713	         -2.22022944	          1.07205524	          0.00000000	          0.04770883	          0.00000000	          0.00000000	          0.00000000	          0.00000000	          0.00000000	          0.00000000	          0.00000000	          2.01424966	          0.00000000	          0.00000000	          0.00000000	          0.00000000	
          1.48000000	        -23.17807539	        428.68687097	         -4.40890107	          1.07223229	          0.00000000	          0.04759477	          0.00000000	          0.00000000	          0.00000000	          0.00000000	          0.00000000	          0.00000000	          0.00000000	          1.79160297	          0.00000000	          0.00000000	          0.00000000	          0.00000000	
          1.48400000	        -20.95268080	        428.88049686	         -6.45584087	          1.07238886	          0.00000000	          0.04750196	          0.00000000	          0.00000000	          0.00000000	          0.00000000	          0.00000000	          0.00000000	          0.00000000	          1.59824403	          0.00000000	          0.00000000	          0.00000000	          0.00000000	
          1.48800000	        -19.19752921	        429.38607509	         -7.91334026	          1.07254246	          0.00000000	          0.04740398	          0.00000000	          0.00000000	          0.00000000	          0.00000000	          0.00000000	          0.00000000	          0.00000000	          1.47969559	          0.00000000	          0.00000000	          0.00000000	          0.00000000	
          1.49200000	        -17.93428055	        430.32034644	         -8.44978477	          1.07270309	          0.00000000	          0.04728061	          0.00000000	          0.00000000	          0.00000000	          0.00000000	          0.00000000	          0.00000000	          0.00000000	          1.46806318	          0.00000000	          0.00000000	          0.00000000	          0.00000000	
          1.49600000	        -17.04087831	        431.74125315	         -7.90326665	          1.07287090	          0.00000000	          0.04712573	          0.00000000	          0.00000000	          0.00000000	          0.00000000	          0.00000000	          0.00000000	          0.00000000	          1.57639404	          0.00000000	          0.00000000	          0.00000000	          0.00000000	
          1.50000000	        -16.29766953	        433.66326855	         -6.32314936	          1.07303004	          0.00000000	          0.04695271	          0.00000000	          0.00000000	          0.00000000	          0.00000000	          0.00000000	          0.00000000	          0.00000000	          1.79616554	          0.00000000	          0.00000000	          0.00000000	          0.00000000	
          1.50400000	        -15.44338983	        436.07296431	         -3.97639303	          1.07314500	          0.00000000	          0.04678841	          0.00000000	          0.00000000	          0.00000000	          0.00000000	          0.00000000	          0.00000000	          0.00000000	          2.09858070	          0.00000000	          0.00000000	          0.00000000	          0.00000000	
          1.50800000	        -14.23857337	        438.93005892	         -1.30240197	          1.07317875	          0.00000000	          0.04665309	          0.00000000	          0.00000000	          0.00000000	          0.00000000	          0.00000000	          0.00000000	          0.00000000	          2.43981606	          0.00000000	          0.00000000	          0.00000000	          0.00000000	
          1.51200000	        -12.53293882	        442.17832913	          1.16582588	          1.07310775	          0.00000000	          0.04656892	          0.00000000	          0.00000000	          0.00000000	          0.00000000	          0.00000000	          0.00000000	          0.00000000	          2.76932922	          0.00000000	          0.00000000	          0.00000000	          0.00000000	
          1.51600000	        -10.30152634	        445.77060412	          2.90162424	          1.07294586	          0.00000000	          0.04656418	          0.00000000	          0.00000000	          0.00000000	          0.00000000	          0.00000000	          0.00000000	          0.00000000	          3.03937381	          0.00000000	          0.00000000	          0.00000000	          0.00000000	
          1.52000000	         -7.62681891	        449.68402979	          3.49195888	          1.07273164	          0.00000000	          0.04666339	          0.00000000	          0.00000000	          0.00000000	          0.00000000	          0.00000000	          0.00000000	          0.00000000	          3.21366103	          0.00000000	          0.00000000	          0.00000000	          0.00000000	
          1.52400000	         -4.64667428	        453.91820525	          2.71853939	          1.07249102	          0.00000000	          0.04687228	          0.00000000	          0.00000000	          0.00000000	          0.00000000	          0.00000000	          0.00000000	          0.00000000	          3.27359456	          0.00000000	          0.00000000	          0.00000000	          0.00000000	
          1.52800000	         -1.50308406	        458.48595355	          0.59428764	          1.07225312	          0.00000000	          0.04718531	          0.00000000	          0.00000000	          0.00000000	          0.00000000	          0.00000000	          0.00000000	          0.00000000	          3.22120675	          0.00000000	          0.00000000	          0.00000000	          0.00000000	
          1.53200000	          1.69358056	        463.40918394	         -2.64013926	          1.07204623	          0.00000000	          0.04758642	          0.00000000	          0.00000000	          0.00000000	          0.00000000	          0.00000000	          0.00000000	          0.00000000	          3.07850504	          0.00000000	          0.00000000	          0.00000000	          0.00000000	
          1.53600000	          4.88757988	        468.71910542	         -6.56283698	          1.07187721	          0.00000000	          0.04804333	          0.00000000	          0.00000000	          0.00000000	          0.00000000	          0.00000000	          0.00000000	          0.00000000	          2.88339047	          0.00000000	          0.00000000	          0.00000000	          0.00000000	
          1.54000000	          8.08074244	        474.44311278	        -10.65842400	          1.07173428	          0.00000000	          0.04851295	          0.00000000	          0.00000000	          0.00000000	          0.00000000	          0.00000000	          0.00000000	          0.00000000	          2.68280803	          0.00000000	          0.00000000	          0.00000000	          0.00000000	
          1.54400000	         11.31252458	        480.57654711	        -14.41489427	          1.07159742	          0.00000000	          0.04896003	          0.00000000	          0.00000000	          0.00000000	          0.00000000	          0.00000000	          0.00000000	          0.00000000	          2.52435645	          0.00000000	          0.00000000	          0.00000000	          0.00000000	
